<svg
  xmlns="http://www.w3.org/2000/svg"
  width="32"
  height="32"
  viewBox="0 0 32 32"
  fill="none"
>
  <path
    d="M15.4421 11.9018C15.5825 11.7573 15.7759 11.6691 15.9905 11.6691C16.2051 11.6691 16.3958 11.7547 16.5335 11.8965L19.9402 15.3365C20.2157 15.6147 20.6633 15.6147 20.9389 15.3365L23.6488 12.5999C23.9243 12.3217 23.9243 11.8697 23.6488 11.5915L17.9719 5.85097C16.8806 4.74889 15.1084 4.74889 14.017 5.85097L8.33487 11.5888C8.0594 11.867 8.0594 12.3191 8.33487 12.5973L11.0448 15.3338C11.3203 15.612 11.768 15.612 12.0435 15.3338L15.4448 11.8991L15.4421 11.9018Z"
    fill="#FF6521"
  />
  <path
    d="M27.3657 15.3392L26.1339 14.0954C25.8584 13.8172 25.4107 13.8172 25.1352 14.0954L16.5339 22.781C16.3961 22.9201 16.2028 23.0084 15.9909 23.0084C15.7789 23.0084 15.5882 22.9228 15.4478 22.7836L6.84915 14.0954C6.57365 13.8172 6.12597 13.8172 5.85047 14.0954L4.61869 15.3392C3.52729 16.4413 3.52729 18.2308 4.61869 19.333L14.0147 28.8211C15.1061 29.9232 16.8783 29.9232 17.9697 28.8211L27.3657 19.333C28.4571 18.2308 28.4571 16.4413 27.3657 15.3392Z"
    fill="#202020"
  />
</svg>
